<?xml version="1.0" ?><!DOCTYPE svg  PUBLIC '-//W3C//DTD SVG 1.1//EN'  'http://www.w3.org/Graphics/SVG/1.1/DTD/svg11.dtd'><svg enable-background="new 0 0 70 70" id="Layer_1" version="1.1" viewBox="0 0 70 70" xml:space="preserve" xmlns="http://www.w3.org/2000/svg" xmlns:xlink="http://www.w3.org/1999/xlink"><g><path d="M42.2485352,50.5991211c-13.9755859,0-14.3935547-0.71875-14.6435547-1.1484375   c-0.1435547-0.246582-0.5800781-0.9970703-0.480957-22.4663086c0.0161133-3.5556641,0.1181641-21.3344727,0.5097656-22.1674805   c0.246582-0.5253906,0.4799805-1.0214844,16.0864258-1.0214844c8.0083008,0,17.7109375,0.1279297,18.4536133,0.7368164   c0.296875,0.2431641,0.9140625,0.7495117,0.796875,22.2167969c-0.0776367,14.2094727-0.4174805,21.7866211-1.0097656,22.5195313   C61.0258789,50.4262695,49.2089844,50.5991211,42.2485352,50.5991211z M28.9008789,48.5546875   c1.1132813,0.2734375,5.5566406,0.5444336,13.3476563,0.5444336c9.9790039,0,17.1621094-0.4208984,18.5234375-0.8310547   c0.7314453-3.3383789,0.9916992-38.3862305,0.3271484-42.5356445c-1.5942383-0.2202148-8.4824219-0.4370117-17.3789063-0.4370117   c-8.5141602,0-13.3945313,0.1992188-14.7270508,0.4047852C28.6948242,9.84375,28.3681641,44.7509766,28.9008789,48.5546875z" fill="#373684"/><path d="M37.8769531,25.7055664c-0.4033203,0-0.7363281-0.3203125-0.7490234-0.7265625   c-0.0131836-0.4140625,0.3120117-0.7602539,0.7260742-0.7729492l16.3081055-0.5117188   c0.4179688-0.0170898,0.7597656,0.3120117,0.7729492,0.7260742s-0.3120117,0.7602539-0.7260742,0.7729492l-16.3081055,0.5117188   C37.8930664,25.7055664,37.8847656,25.7055664,37.8769531,25.7055664z" fill="#373684"/><path d="M37.6894531,30.2182617c-0.4042969,0-0.737793-0.3222656-0.7490234-0.7290039   c-0.0117188-0.4140625,0.3144531-0.7592773,0.7285156-0.7705078l17.2509766-0.4785156   c0.4248047-0.0268555,0.7587891,0.3139648,0.7705078,0.7285156c0.0117188,0.4140625-0.3144531,0.7592773-0.7285156,0.7705078   l-17.2509766,0.4785156C37.7036133,30.2182617,37.6967773,30.2182617,37.6894531,30.2182617z" fill="#373684"/><path d="M26.4379883,13.5625c-0.2480469,0-0.4912109-0.1230469-0.6337891-0.3481445   c-0.0712891-0.112793-0.159668-0.2426758-0.2548828-0.3833008c-0.3588867-0.5307617-0.7661133-1.1318359-0.9262695-1.6650391   c-0.2426758-0.8056641-0.1992188-1.6054688,0.1210938-2.2509766c0.2773438-0.5571289,0.7797852-1.027832,1.4150391-1.3261719   c1.4765625-0.6923828,3.3720703-0.2670898,4.409668,0.9936523c1.0893555,1.3222656,0.8100586,3.3828125-0.0888672,4.6103516   c-0.2441406,0.3339844-0.7148438,0.4067383-1.0478516,0.1621094c-0.3344727-0.2446289-0.4067383-0.7138672-0.1621094-1.0478516   c0.5507813-0.7524414,0.7387695-2.0454102,0.140625-2.7709961c-0.6049805-0.7358398-1.7539063-0.9936523-2.6142578-0.5893555   c-0.3300781,0.1552734-0.5820313,0.3808594-0.7089844,0.6357422c-0.1479492,0.2983398-0.1582031,0.7182617-0.027832,1.1513672   c0.0942383,0.3139648,0.4628906,0.8588867,0.7319336,1.2563477c0.1044922,0.1542969,0.2011719,0.2973633,0.2792969,0.4204102   c0.2216797,0.3500977,0.1181641,0.8134766-0.2314453,1.0351563C26.7143555,13.5249023,26.5756836,13.5625,26.4379883,13.5625z" fill="#373684"/><path d="M30.0292969,21.996582c-0.1625977,0-0.3261719-0.0527344-0.4638672-0.1611328   c-0.3251953-0.2563477-0.3808594-0.7280273-0.1245117-1.0532227c0.2856445-0.3618164,0.4794922-0.7744141,0.5615234-1.1923828   c0.1430664-0.7299805-0.0800781-1.5361328-0.5693359-2.0537109c-0.4951172-0.5229492-1.2768555-0.7661133-1.9521484-0.6054688   c-0.6782227,0.1621094-1.2402344,0.7373047-1.3662109,1.3979492c-0.125,0.6538086,0.2041016,1.3857422,0.7646484,1.7021484   c0.3608398,0.2036133,0.4882813,0.6611328,0.284668,1.0219727c-0.2036133,0.3613281-0.6601563,0.487793-1.0219727,0.284668   c-1.1132813-0.628418-1.7446289-2.012207-1.5009766-3.2900391c0.2373047-1.2407227,1.2382813-2.2758789,2.4907227-2.5756836   c1.1967773-0.2866211,2.5268555,0.1196289,3.3911133,1.0341797c0.8242188,0.8720703,1.1884766,2.1645508,0.9511719,3.3725586   c-0.1269531,0.6503906-0.4228516,1.2841797-0.8554688,1.8325195C30.4707031,21.8989258,30.2509766,21.996582,30.0292969,21.996582z   " fill="#373684"/><path d="M29.7963867,30.0625c-0.1665039,0-0.3344727-0.0551758-0.4736328-0.1689453   c-0.3208008-0.262207-0.3686523-0.734375-0.1069336-1.0551758c0.4912109-0.6020508,0.5522461-1.2758789,0.5454102-1.9145508   c-0.0058594-0.5009766-0.1806641-1.1464844-0.6542969-1.4541016c-0.3710938-0.2407227-0.90625-0.2631836-1.3930664-0.262207   c-0.4995117,0.0053711-1.1210938,0.0517578-1.496582,0.3598633c-0.331543,0.2714844-0.4990234,0.8105469-0.4174805,1.3417969   c0.0791016,0.512207,0.3505859,1.0410156,0.8305664,1.6162109c0.2651367,0.3183594,0.222168,0.7915039-0.0957031,1.0566406   c-0.3193359,0.2651367-0.7910156,0.222168-1.0566406-0.0957031c-0.6591797-0.7910156-1.0385742-1.559082-1.1606445-2.3491211   c-0.1645508-1.0693359,0.1987305-2.1152344,0.9482422-2.7294922c0.7363281-0.6044922,1.6860352-0.6918945,2.4311523-0.7001953   c0.7143555-0.0043945,1.5219727,0.0454102,2.2275391,0.5043945c0.8237305,0.5356445,1.3232422,1.5429688,1.3369141,2.6948242   c0.0087891,0.8261719-0.0830078,1.8999023-0.8833008,2.8798828C30.2294922,29.9682617,30.0136719,30.0625,29.7963867,30.0625z" fill="#373684"/><path d="M26.0625,37.53125c-0.0883789,0-0.1782227-0.015625-0.2661133-0.0488281   c-1.2734375-0.4829102-1.4799805-1.5302734-1.6455078-2.3720703c-0.262207-1.3261719,0.4985352-2.2021484,1.0927734-2.7509766   c0.746582-0.6894531,1.8320313-1.0424805,2.9018555-0.9482422c0.9331055,0.0839844,1.8115234,0.5014648,2.4106445,1.1459961   c0.6723633,0.7231445,0.9824219,1.7099609,0.8300781,2.6391602c-0.1513672,0.9267578-0.7709961,1.7573242-1.6176758,2.1665039   c-0.3735352,0.1801758-0.8212891,0.0239258-1.0014648-0.3491211c-0.1801758-0.3725586-0.0239258-0.8212891,0.3491211-1.0014648   c0.4067383-0.1967773,0.7167969-0.6118164,0.7895508-1.0581055c0.0766602-0.46875-0.0947266-0.9956055-0.4482422-1.3754883   c-0.3500977-0.3769531-0.8774414-0.6225586-1.4458008-0.6733398c-0.6586914-0.0625-1.3105469,0.1489258-1.7504883,0.5556641   c-0.6386719,0.590332-0.7226563,0.9350586-0.6503906,1.2998047c0.168457,0.855957,0.246582,1.140625,0.7177734,1.3193359   c0.387207,0.1469727,0.5820313,0.5800781,0.4350586,0.9672852C26.6499023,37.347168,26.3647461,37.53125,26.0625,37.53125z" fill="#373684"/><path d="M26.1245117,45.875c-0.1289063,0-0.2597656-0.0332031-0.3789063-0.1030273   c-1.4213867-0.8339844-1.5952148-2.7880859-1.0371094-4.203125c0.550293-1.3959961,1.9360352-2.6220703,3.5180664-2.2695313   c0.2739258,0.0615234,1.6708984,0.3979492,2.2475586,0.9892578c0.8037109,0.8237305,1.3037109,1.8857422,1.3378906,2.8408203   c0.0283203,0.796875-0.0664063,1.9345703-1.2124023,2.6103516c-0.3544922,0.2109375-0.815918,0.0927734-1.0268555-0.2651367   c-0.2104492-0.3564453-0.0917969-0.8164063,0.2651367-1.0268555c0.3305664-0.1948242,0.5039063-0.4541016,0.4750977-1.2646484   c-0.0249023-0.6977539-0.487793-1.4116211-0.9121094-1.8466797c-0.1396484-0.140625-0.8261719-0.421875-1.5024414-0.5732422   c-0.7509766-0.1694336-1.4858398,0.5722656-1.7944336,1.3554688c-0.3286133,0.8334961-0.2460938,1.9799805,0.4003906,2.359375   c0.3574219,0.2094727,0.4770508,0.6689453,0.2675781,1.0263672C26.6323242,45.7426758,26.3818359,45.875,26.1245117,45.875z" fill="#373684"/><path d="M39.5200195,53.2075195c-1.9423828,0-5.2006836-0.2705078-7.3032227-0.7246094   c-2.019043-0.4355469-3.7519531-0.9672852-4.515625-3.0708008c-0.1411133-0.3891602,0.0600586-0.8193359,0.4492188-0.9609375   c0.3896484-0.1416016,0.8193359,0.0600586,0.9609375,0.4492188c0.4643555,1.2792969,1.4306641,1.6865234,3.421875,2.1166992   c1.9780273,0.4267578,5.1635742,0.6904297,6.9868164,0.6904297c0.003418,0,0.0063477,0,0.0092773,0   c6.2514648-0.0029297,12.5610352-0.4584961,18.753418-1.3544922c0.5380859-0.078125,1.1479492-0.1669922,1.5966797-0.4379883   c0.3999023-0.2416992,0.5810547-0.4423828,0.6694336-1.0625c0.0585938-0.4101563,0.4418945-0.6914063,0.8486328-0.6367188   c0.4101563,0.0585938,0.6953125,0.4384766,0.6367188,0.8486328c-0.1445313,1.0117188-0.5439453,1.6298828-1.3789063,2.1342773   c-0.7080078,0.4282227-1.5117188,0.5449219-2.1572266,0.6386719c-6.2636719,0.90625-12.6455078,1.3671875-18.9677734,1.3701172   C39.5268555,53.2075195,39.5234375,53.2075195,39.5200195,53.2075195z" fill="#373684"/><path d="M24.1884766,65.5688477c-0.1723633,0-0.2485352-0.0351563-0.3198242-0.0673828   c-0.590332-0.2695313-0.9018555-0.9765625-3.8779297-10.0908203c-2.5966797-7.953125-6.1533203-18.8452148-9.3217773-25.4916992   c-0.8310547-1.7426758-1.6416016-3.7543945-0.7392578-5.578125c0.7211914-1.4575195,2.2387695-2.1430664,3.7314453-2.7202148   c2.1015625-0.8125,3.9345703-1.449707,5.7070313-2.065918c1.7587891-0.6113281,3.5776367-1.2431641,5.652832-2.0458984   c0.3862305-0.1464844,0.8208008,0.0429688,0.9702148,0.4291992s-0.0429688,0.8208008-0.4291992,0.9702148   c-2.0996094,0.8115234-3.9306641,1.4477539-5.7011719,2.0634766c-1.7607422,0.6118164-3.5810547,1.2446289-5.6586914,2.0483398   c-1.2675781,0.4897461-2.4453125,1.0107422-2.9277344,1.9858398c-0.6044922,1.2216797,0.0380859,2.777832,0.7480469,4.2675781   c3.2109375,6.734375,6.784668,17.6796875,9.394043,25.6713867c1.3388672,4.1000977,2.6103516,7.9941406,3.1362305,9.0913086   c3.4916992-0.7333984,28.621582-10.1538086,30.6352539-11.1806641c0.0161133-0.0849609-0.0390625-0.2666016-0.1455078-0.5625   c-0.078125-0.21875-0.1533203-0.4375-0.1948242-0.6484375c-0.0800781-0.40625,0.1845703-0.800293,0.5913086-0.8803711   c0.4018555-0.0834961,0.7998047,0.184082,0.8803711,0.5913086c0.027832,0.140625,0.0830078,0.2851563,0.1352539,0.4311523   c0.1894531,0.5288086,0.5068359,1.4140625-0.2075195,2.1513672c-0.5712891,0.5908203-13.3369141,5.3125-15.8901367,6.2529297   C27.6420898,64.8745117,24.9580078,65.5688477,24.1884766,65.5688477z" fill="#373684"/><path d="M9.78125,32.84375c-0.1938477,0-0.3881836-0.074707-0.534668-0.2241211   c-0.2290039-0.2329102-1.378418-1.4541016-1.5512695-2.6586914c-0.121582-0.8432617,0.0639648-1.7675781,0.5219727-2.6030273   c0.7714844-1.4038086,2.7250977-1.9057617,4.1645508-1.5791016c1.5917969,0.3603516,2.7270508,1.3852539,3.0366211,2.7416992   l0.0317383,0.1220703c0.140625,0.5195313,0.4326172,1.6010742-0.9658203,2.9755859   c-0.2944336,0.2905273-0.7700195,0.2875977-1.0605469-0.0087891c-0.2905273-0.2954102-0.2866211-0.7705078,0.0087891-1.0605469   c0.7734375-0.7602539,0.6743164-1.1269531,0.5698242-1.5151367l-0.0458984-0.1787109   c-0.1782227-0.7802734-0.890625-1.3833008-1.9057617-1.6132813c-0.8657227-0.1967773-2.112793,0.1000977-2.5180664,0.8378906   c-0.3027344,0.5517578-0.4282227,1.144043-0.3530273,1.6674805c0.0639648,0.4443359,0.5527344,1.2270508,1.1362305,1.8208008   c0.2905273,0.2954102,0.2866211,0.7705078-0.0087891,1.0605469C10.1611328,32.7719727,9.9711914,32.84375,9.78125,32.84375z" fill="#373684"/><path d="M13.3344727,40.1875c-0.0463867,0-0.09375-0.0043945-0.1411133-0.0131836   c-1.2099609-0.2299805-1.7832031-1.1508789-2.1625977-1.7602539c-0.5532227-0.8886719-0.6630859-1.8554688-0.3198242-2.7402344   c0.2885742-0.7431641,0.9316406-1.3227539,1.9648438-1.7724609c0.7373047-0.3203125,1.3618164-0.4716797,1.965332-0.4750977   c1.2236328,0.0390625,2.4462891,0.668457,3.0893555,1.7216797c0.6425781,1.0527344,0.6894531,2.4399414,0.1191406,3.5341797   c-0.1914063,0.3666992-0.6430664,0.5097656-1.0117188,0.3183594c-0.3671875-0.1914063-0.5097656-0.6445313-0.3183594-1.0117188   c0.3271484-0.6279297,0.2993164-1.4555664-0.0693359-2.0595703c-0.3691406-0.6040039-1.0727539-0.9980469-1.800293-1.0029297   c-0.3935547,0.0024414-0.8305664,0.1137695-1.3754883,0.3510742c-0.6479492,0.2817383-1.0288086,0.5888672-1.1650391,0.9394531   c-0.2158203,0.5556641-0.019043,1.0610352,0.1835938,1.3867188c0.3764648,0.6049805,0.6557617,0.9975586,1.1806641,1.097168   c0.4067383,0.0771484,0.6738281,0.4697266,0.5966797,0.8769531C14.0019531,39.9370117,13.6875,40.1875,13.3344727,40.1875z" fill="#373684"/><path d="M19.7587891,47.7866211c-0.1401367,0-0.28125-0.0390625-0.4077148-0.1206055   c-0.347168-0.2255859-0.4462891-0.6899414-0.2211914-1.0375977c0.5292969-0.815918,0.7919922-1.543457,0.8027344-2.2236328   c0.012207-0.7333984-0.3286133-1.4233398-0.8481445-1.7163086c-0.4956055-0.2792969-1.128418-0.2299805-1.5712891-0.140625   c-0.7319336,0.1484375-1.3632813,0.4814453-1.7763672,0.9384766c-0.4345703,0.4799805-0.6337891,1.1201172-0.5205078,1.6708984   c0.1118164,0.5395508,0.5629883,0.9926758,1.050293,1.0537109c0.4111328,0.0512695,0.7026367,0.4257813,0.6513672,0.8369141   s-0.4326172,0.7026367-0.8369141,0.6513672c-1.1308594-0.1411133-2.090332-1.0615234-2.3334961-2.2387695   c-0.2114258-1.0263672,0.1166992-2.140625,0.8769531-2.980957c0.6357422-0.7021484,1.5317383-1.1870117,2.5913086-1.4018555   c0.9951172-0.2006836,1.8950195-0.0957031,2.6049805,0.3041992c1.0004883,0.5639648,1.6333008,1.7602539,1.6118164,3.0478516   c-0.015625,0.9692383-0.3574219,1.9555664-1.0439453,3.0151367C20.2451172,47.6660156,20.0043945,47.7866211,19.7587891,47.7866211   z" fill="#373684"/><path d="M18.5620117,55.4375c-0.1420898,0-0.2861328-0.0400391-0.4135742-0.1245117   c-0.105957-0.0703125-0.2177734-0.1381836-0.3300781-0.206543c-0.5014648-0.3046875-1.1254883-0.6835938-1.4418945-1.3613281   c-0.6669922-1.4296875-0.4707031-2.4882813-0.1884766-3.1245117c0.390625-0.8808594,1.2211914-1.5732422,2.2783203-1.8999023   c0.7568359-0.2338867,2.1523438-0.1552734,2.847168,0.0693359c0.9550781,0.309082,1.6782227,1.215332,1.8876953,2.3652344   c0.1679688,0.9194336,0.0048828,1.8232422-0.1396484,2.6206055c-0.0737305,0.4082031-0.4677734,0.6801758-0.8710938,0.6044922   c-0.4077148-0.0732422-0.6782227-0.4633789-0.6044922-0.8710938c0.1269531-0.7045898,0.2587891-1.4331055,0.1396484-2.0849609   c-0.0888672-0.4892578-0.3935547-1.0517578-0.8735352-1.2070313c-0.4716797-0.152832-1.5444336-0.1875-1.9428711-0.0634766   c-0.6430664,0.1987305-1.1352539,0.5908203-1.3500977,1.0751953c-0.2265625,0.5112305-0.1669922,1.1445313,0.1767578,1.8818359   c0.1240234,0.2661133,0.4824219,0.4833984,0.8613281,0.7138672c0.1289063,0.0786133,0.2573242,0.1567383,0.3793945,0.2373047   c0.3452148,0.2285156,0.4399414,0.6938477,0.2114258,1.0395508C19.0439453,55.3193359,18.8051758,55.4375,18.5620117,55.4375z" fill="#373684"/><path d="M20.875,62.71875c-0.0839844,0-0.1689453-0.0141602-0.2524414-0.043457   c-1.2128906-0.4335938-1.7016602-1.6079102-1.9638672-2.453125c-0.5595703-1.8056641,0.237793-3.2631836,2.3696289-4.3320313   c1.0131836-0.5097656,2.0576172-0.6000977,2.8530273-0.2705078c0.465332,0.1933594,1.4604492,0.8774414,1.8920898,2.0825195   c0.2412109,0.6728516,0.3793945,1.7548828-0.3300781,3.0878906c-0.1948242,0.3657227-0.6503906,0.5024414-1.0146484,0.3095703   c-0.3657227-0.1948242-0.5039063-0.6489258-0.3095703-1.0146484c0.362793-0.6811523,0.4443359-1.3129883,0.2421875-1.8769531   c-0.2646484-0.7387695-0.909668-1.1425781-1.0551758-1.2026367c-0.3803711-0.1582031-1.0014648-0.0795898-1.5458984,0.1958008   c-1.1376953,0.5703125-2.0791016,1.253418-1.6689453,2.5766602c0.2724609,0.878418,0.5820313,1.3227539,1.0361328,1.484375   c0.3901367,0.1396484,0.5932617,0.5688477,0.4541016,0.9589844C21.4716797,62.527832,21.1831055,62.71875,20.875,62.71875z" fill="#373684"/><path d="M27.5244141,66.7573242c-1.5878906,0-3.0180664-0.359375-4.0429688-1.340332   c-0.2993164-0.2866211-0.3095703-0.7612305-0.0234375-1.0605469c0.2866211-0.2998047,0.7607422-0.3105469,1.0605469-0.0234375   c2.0058594,1.9194336,7.2304688,0.296875,8.9462891-0.2368164c17.5957031-5.465332,21.144043-9.2919922,21.6928711-11.0864258   c0.121582-0.3964844,0.543457-0.6206055,0.9365234-0.4980469c0.3964844,0.1210938,0.6191406,0.5405273,0.4980469,0.9365234   c-1.1293945,3.6918945-8.7607422,7.7563477-22.6821289,12.0805664   C31.8710938,66.1621094,29.5668945,66.7573242,27.5244141,66.7573242z" fill="#373684"/></g></svg>